<svg width="540" height="172" viewBox="0 0 540 172" fill="none" xmlns="http://www.w3.org/2000/svg">
<g clip-path="url(#clip0_2745_6067)">
<rect width="540" height="172" fill="#D4F5DD"/>
<path d="M238.424 43.3911L222.027 69.8349C220.849 71.7339 220.225 73.9241 220.225 76.1587L220.225 127.75C220.225 130.358 221.075 132.896 222.647 134.978L255.145 178.042C256.455 179.778 258.504 180.799 260.679 180.799C266.401 180.799 269.66 174.259 266.214 169.691L237.013 130.977C235.442 128.896 234.593 126.359 234.593 123.751L234.593 78.1587C234.593 75.9241 235.217 73.7339 236.394 71.8349L252.791 45.3911C253.969 43.492 254.593 41.3018 254.593 39.0673L254.593 -1.81629C254.593 -5.78375 251.377 -9 247.409 -9C243.442 -9 240.225 -5.78374 240.225 -1.81629L240.225 37.0673C240.225 39.3018 239.601 41.492 238.424 43.3911Z" fill="#DAE2FF" stroke="#C9D5FF"/>
<path d="M408.482 130.741L389.223 119.337C385.2 116.955 382.926 112.454 383.397 107.802L385.347 88.5532" stroke="#B9EFC8" stroke-width="2"/>
<path d="M401.864 -32.6326L405.128 -10.4895C405.81 -5.86435 403.744 -1.26429 399.833 1.29791L383.65 11.9014" stroke="#B9EFC8" stroke-width="2"/>
<path d="M295.196 82.7326V77.5509C295.196 72.0726 298.907 67.2898 304.213 65.9277L320.963 61.6284" stroke="#B9EFC8" stroke-width="2"/>
<path d="M42 151L48.9587 139.73C50.5892 137.089 53.1796 135.183 56.1858 134.411L77.2663 129" stroke="#B9EFC8" stroke-width="2"/>
<path d="M70.0002 63.9854L87.5976 59.3287C92.8539 57.9377 98.3886 60.2549 101.086 64.9757L106.512 74.4699" stroke="#B9EFC8" stroke-width="2"/>
<path d="M198.123 108.422L193.823 96.533C193.349 95.2242 193.107 93.8431 193.107 92.4514L193.107 83.1195C193.107 76.7787 188.174 71.5323 181.845 71.1423L167.464 70.256C163.24 69.9958 159.466 67.5301 157.531 63.767L156.521 61.8047" stroke="#B9EFC8" stroke-width="2"/>
<mask id="path-8-inside-1_2745_6067" fill="white">
<path d="M344.99 45.9937V50.8159H363.185V67.0825H353.393V63.3501H344.99V68.4243H323.749V58.5278H316.429V45.9937H344.99Z"/>
</mask>
<path d="M344.99 45.9937V50.8159H363.185V67.0825H353.393V63.3501H344.99V68.4243H323.749V58.5278H316.429V45.9937H344.99Z" fill="#E8E9ED"/>
<path d="M344.99 45.9937H345.99V44.9937H344.99V45.9937ZM344.99 50.8159H343.99V51.8159H344.99V50.8159ZM363.185 50.8159H364.185V49.8159H363.185V50.8159ZM363.185 67.0825V68.0825H364.185V67.0825H363.185ZM353.393 67.0825H352.393V68.0825H353.393V67.0825ZM353.393 63.3501H354.393V62.3501H353.393V63.3501ZM344.99 63.3501V62.3501H343.99V63.3501H344.99ZM344.99 68.4243V69.4243H345.99V68.4243H344.99ZM323.749 68.4243H322.749V69.4243H323.749V68.4243ZM323.749 58.5278H324.749V57.5278H323.749V58.5278ZM316.429 58.5278H315.429V59.5278H316.429V58.5278ZM316.429 45.9937V44.9937H315.429V45.9937H316.429ZM344.99 45.9937H343.99V50.8159H344.99H345.99V45.9937H344.99ZM344.99 50.8159V51.8159H363.185V50.8159V49.8159H344.99V50.8159ZM363.185 50.8159H362.185V67.0825H363.185H364.185V50.8159H363.185ZM363.185 67.0825V66.0825H353.393V67.0825V68.0825H363.185V67.0825ZM353.393 67.0825H354.393V63.3501H353.393H352.393V67.0825H353.393ZM353.393 63.3501V62.3501H344.99V63.3501V64.3501H353.393V63.3501ZM344.99 63.3501H343.99V68.4243H344.99H345.99V63.3501H344.99ZM344.99 68.4243V67.4243H323.749V68.4243V69.4243H344.99V68.4243ZM323.749 68.4243H324.749V58.5278H323.749H322.749V68.4243H323.749ZM323.749 58.5278V57.5278H316.429V58.5278V59.5278H323.749V58.5278ZM316.429 58.5278H317.429V45.9937H316.429H315.429V58.5278H316.429ZM316.429 45.9937V46.9937H344.99V45.9937V44.9937H316.429V45.9937Z" fill="#D9DBE6" mask="url(#path-8-inside-1_2745_6067)"/>
<rect x="328.845" y="46.4937" width="15.5757" height="14.5909" fill="#E8E9ED" stroke="#D9DBE6"/>
<path d="M216.215 99.8451L209.44 109.749L204.335 106.257L211.111 96.3532L216.215 99.8451Z" fill="#E8E9ED" stroke="#D9DBE6"/>
<path d="M212.47 120.98L200.663 123.124L199.559 117.038L211.366 114.895L212.47 120.98Z" fill="#E8E9ED" stroke="#D9DBE6"/>
<path d="M416.038 134.601L413.592 122.853L419.646 121.592L422.093 133.34L416.038 134.601Z" fill="#E8E9ED" stroke="#D9DBE6"/>
<path d="M180.553 103.751L187.77 113.338L182.829 117.058L175.612 107.471L180.553 103.751Z" fill="#E8E9ED" stroke="#D9DBE6"/>
<path d="M380.89 129.647L392.073 133.999L389.83 139.762L378.647 135.411L380.89 129.647Z" fill="#E8E9ED" stroke="#D9DBE6"/>
<path d="M40.5634 121.324L42.2781 133.201L36.157 134.085L34.4423 122.208L40.5634 121.324Z" fill="#E8E9ED" stroke="#D9DBE6"/>
<path d="M301.637 6.95922L305.615 -4.3625L311.45 -2.31269L307.472 9.00903L301.637 6.95922Z" fill="#E8E9ED" stroke="#D9DBE6"/>
<path d="M116.171 69.7753L110.171 80.1676L104.815 77.0753L110.815 66.683L116.171 69.7753Z" fill="#E8E9ED" stroke="#D9DBE6"/>
<path d="M366.728 147.517L373.702 147.755L373.491 153.936L366.517 153.698L366.728 147.517Z" fill="#E8E9ED" stroke="#D9DBE6"/>
<path d="M47.7278 117.517L54.7022 117.755L54.4912 123.936L47.5168 123.698L47.7278 117.517Z" fill="#E8E9ED" stroke="#D9DBE6"/>
<path d="M110.566 159.681L116.693 156.341L119.653 161.771L113.526 165.111L110.566 159.681Z" fill="#E8E9ED" stroke="#D9DBE6"/>
<rect x="172.99" y="66.0664" width="8.92501" height="14.0875" transform="rotate(-90 172.99 66.0664)" fill="#E8E9ED" stroke="#D9DBE6"/>
<rect x="148.614" y="59.6357" width="8.92501" height="14.0875" transform="rotate(-130.245 148.614 59.6357)" fill="#E8E9ED" stroke="#D9DBE6"/>
<path d="M204.729 53.8032L204.729 59.6548L191.654 59.6548L191.654 66.0659L210.552 66.0659L210.552 53.8032L204.729 53.8032Z" fill="#E8E9ED" stroke="#D9DBE6"/>
<path d="M115.138 85.3451L112.212 90.4127L100.889 83.8751L97.6832 89.4273L114.049 98.8761L120.18 88.2563L115.138 85.3451Z" fill="#E8E9ED" stroke="#D9DBE6"/>
<path d="M394.826 111.798C391.34 111.654 388.139 107.664 389.651 105.346L393.271 99.7974C393.706 99.1308 394.487 98.7413 395.459 98.7062L408.523 98.2351C411.302 98.1348 414.388 100.83 414.388 103.357L414.388 110.062C414.388 111.578 413.229 112.553 411.51 112.483L394.826 111.798Z" fill="#B9EFC8"/>
<path d="M280.925 47.0245C284.012 45.3214 288.865 47.1303 288.692 49.9198L287.98 61.3852C287.932 62.161 287.465 62.8771 286.668 63.3974L269.532 74.5768C267.188 76.1065 263.13 75.3769 261.85 73.1956L256.175 63.5245C255.419 62.236 255.912 60.8209 257.403 59.9982L280.925 47.0245Z" fill="#B9EFC8"/>
<path d="M393.507 71.0937C393.105 74.2718 389.405 77.0647 387.059 75.9607L375.519 70.5304C374.658 70.1254 374.174 69.2424 374.195 68.1161L374.473 53.3789C374.523 50.7187 377.25 47.8729 379.777 47.8422L393.61 47.6741C395.29 47.6537 396.31 48.9278 396.078 50.7582L393.507 71.0937Z" fill="#B9EFC8"/>
<path d="M569.723 186.042C565.208 211.504 534.771 234.91 509.631 232.253L484.825 229.631C472.39 228.317 463.999 220.652 462.491 209.229L457.537 171.701C457.097 168.363 457.257 164.786 458.013 161.087L468.583 109.358C469.083 106.911 469.323 104.514 469.299 102.203L468.544 27.8738C468.516 25.1579 468.988 22.2876 469.942 19.3681C475.935 1.02306 498.37 -13.4971 515.18 -9.91135L578.204 3.53175C592.176 6.51185 599.504 18.1098 596.855 33.048L569.723 186.042Z" fill="#B9EFC8"/>
<path d="M474.357 70.6876L451.409 57.0997C449.507 55.9735 447.953 54.3439 446.918 52.3905L434 28" stroke="#B9EFC8" stroke-width="2"/>
<path d="M84.4093 49.2388C85.8324 75.0595 61.5504 104.802 36.4683 107.961L11.7195 111.077C-0.686707 112.64 -10.6071 107.095 -14.6857 96.3188L-28.0852 60.9161C-29.277 57.7672 -29.9384 54.2489 -30.0479 50.4746L-31.5798 -2.30132C-31.6523 -4.79801 -31.9663 -7.18572 -32.5174 -9.43061L-50.2394 -81.62C-50.8869 -84.2577 -51.0836 -87.1598 -50.8223 -90.2201C-49.1802 -109.449 -30.6578 -128.712 -13.4725 -129.063L50.9558 -130.379C65.2384 -130.671 75.0235 -121.055 75.8584 -105.906L84.4093 49.2388Z" fill="#B9EFC8"/>
<path d="M370.834 120.124C371.096 121.985 369.605 123.638 367.73 123.567L340.414 122.523C338.173 122.437 336.834 120.003 337.951 118.045L345.998 103.94C346.458 103.133 347.263 102.582 348.178 102.446L364.962 99.9503C366.601 99.7067 368.117 100.839 368.348 102.48L370.834 120.124Z" fill="#B9EFC8"/>
<path d="M246.877 118.902C244.365 118.531 242.62 116.323 242.83 113.78L243.714 103.017C243.941 100.265 246.361 98.1184 249.12 98.2222L309.577 100.497C313.505 100.645 315.542 105.046 313.183 108.287L301.646 124.129C300.496 125.709 298.568 126.535 296.682 126.256L246.877 118.902Z" fill="#B9EFC8"/>
<path d="M61.5458 142.198C59.2941 142.875 57.8575 144.965 58.0808 147.24L60.8088 175.031C61.1657 178.666 65.3735 180.745 68.5884 178.874L118.197 150.004C121.594 148.027 121.323 143.184 117.717 141.434L99.08 132.385C97.8833 131.804 96.5071 131.692 95.2452 132.071L61.5458 142.198Z" fill="#B9EFC8"/>
<path d="M143.913 152.183C146.913 153.729 150.52 151.72 150.784 148.355L151.067 144.768C151.232 142.66 150.055 140.676 148.126 139.812L146.643 139.148C142.512 137.298 138.245 141.452 139.982 145.631L141.715 149.798C142.143 150.828 142.922 151.673 143.913 152.183Z" fill="#B9EFC8"/>
<path d="M205.246 159.554C201.095 160.005 199.293 165.044 202.216 168.026L208.962 174.905C209.903 175.864 211.189 176.404 212.532 176.404H229.261C232.815 176.404 235.235 172.799 233.888 169.509L230.192 160.482C229.347 158.42 227.24 157.166 225.025 157.406L205.246 159.554Z" fill="#B9EFC8"/>
<path d="M153.634 151.126C153.223 153.819 155.688 156.062 158.331 155.4L162.215 154.426C164.408 153.876 165.478 151.392 164.372 149.42C163.732 148.279 162.498 147.602 161.192 147.674L157.193 147.895C155.392 147.994 153.907 149.342 153.634 151.126Z" fill="#B9EFC8"/>
<path d="M318.901 5.52804C317.048 7.52486 317.826 10.7653 320.384 11.7021L324.145 13.0791C326.268 13.8565 328.549 12.403 328.742 10.1502C328.853 8.84673 328.213 7.59342 327.092 6.91908L323.661 4.85488C322.115 3.92494 320.129 4.20585 318.901 5.52804Z" fill="#B9EFC8"/>
<path d="M233.759 27.7368C233.772 30.5387 230.974 32.485 228.351 31.4989L204.367 22.4807C203.113 22.0091 202.178 20.9408 201.877 19.6351L200.124 12.0319C199.548 9.53285 201.44 7.14492 204.004 7.13339L229.666 7.01802C231.875 7.00809 233.674 8.79088 233.684 11L233.759 27.7368Z" fill="#B9EFC8"/>
<path d="M168.335 36.7435C167.85 38.5912 165.785 39.5209 164.08 38.6589L154.958 34.0465C153.058 33.0855 152.736 30.5056 154.342 29.1069L159.247 24.8351C159.996 24.183 161.018 23.9436 161.979 24.1957L168.105 25.8042C169.708 26.225 170.666 27.8651 170.245 29.4677L168.335 36.7435Z" fill="#B9EFC8"/>
</g>
<defs>
<clipPath id="clip0_2745_6067">
<rect width="540" height="172" fill="white"/>
</clipPath>
</defs>
</svg>
